# xmcd
#
# Track frame offsets:
#	150
#	22100
#	38150
#	60839
#	83722
#	116226
#	129576
#	145192
#	167742
#	191370
#	211020
#
# Disc length: 3018 seconds
#
# Revision: 1
# Processed by: cddbd v1.5.1PL0 Copyright (c) Steve Scherf et al.
# Submitted via: audiograbber 1.83.01
#
DISCID=8f0bc80b
DTITLE=John Crampton -  Live'n'Stompin Vol 2
DYEAR=2003
DGENRE=Blues
TTITLE0=Who's That Talking
TTITLE1=12 Gates To The City
TTITLE2=Million Miles
TTITLE3=Skin 'n' Bone
TTITLE4=Raven
TTITLE5=Walls Of Steel
TTITLE6=Jackass Stomp
TTITLE7=Perfect Lover
TTITLE8=Baby Please Dont Go
TTITLE9=Pick A Bale Of Cotton
TTITLE10=Mother Of Christ
EXTD=
EXTT0=
EXTT1=
EXTT2=
EXTT3=
EXTT4=
EXTT5=
EXTT6=
EXTT7=
EXTT8=
EXTT9=
EXTT10=
PLAYORDER=
